<?xml version="1.0" encoding="UTF-8" standalone="no"?><!DOCTYPE svg PUBLIC "-//W3C//DTD SVG 1.1//EN" "http://www.w3.org/Graphics/SVG/1.1/DTD/svg11.dtd"><svg width="100%" height="100%" viewBox="0 0 14 17" version="1.1" xmlns="http://www.w3.org/2000/svg" xmlns:xlink="http://www.w3.org/1999/xlink" xml:space="preserve" xmlns:serif="http://www.serif.com/" style="fill-rule:evenodd;clip-rule:evenodd;stroke-linecap:round;stroke-linejoin:round;"><path d="M7.312,0.938l0,0.375c0,2.121 0,3.182 0.659,3.841c0.659,0.659 1.72,0.659 3.841,0.659l0.375,0m0.375,1.243l0,2.507c0,2.828 0,4.243 -0.879,5.121c-0.879,0.879 -2.293,0.879 -5.121,0.879c-2.828,0 -4.243,0 -5.121,-0.879c-0.879,-0.879 -0.879,-2.293 -0.879,-5.121l0,-3.408c0,-2.434 0,-3.651 0.665,-4.475c0.134,-0.167 0.286,-0.318 0.452,-0.452c0.824,-0.665 2.041,-0.665 4.475,-0.665c0.529,0 0.794,0 1.036,0.086c0.05,0.018 0.1,0.038 0.148,0.061c0.232,0.111 0.419,0.298 0.793,0.672l3.552,3.552c0.434,0.434 0.65,0.65 0.765,0.926c0.114,0.276 0.114,0.582 0.114,1.195Z" style="fill:none;fill-rule:nonzero;stroke:#141b34;stroke-width:1.13px;"/><path d="M11.77,8.205l1.875,0" style="fill:none;fill-rule:nonzero;stroke:#000;stroke-width:1.13px;"/><path d="M7.645,8.205l1.875,0" style="fill:none;fill-rule:nonzero;stroke:#000;stroke-width:1.13px;"/><path d="M3.52,8.205l1.875,0" style="fill:none;fill-rule:nonzero;stroke:#000;stroke-width:1.13px;"/><path d="M-0.605,8.205l1.875,0" style="fill:none;fill-rule:nonzero;stroke:#000;stroke-width:1.13px;"/></svg>